<svg width="157.000000" height="25.000000" viewBox="0 0 157 25" fill="none" xmlns="http://www.w3.org/2000/svg" xmlns:xlink="http://www.w3.org/1999/xlink">
	<desc>
			Created with Pixso.
	</desc>
	<defs/>
	<path id="Star 6" d="M11.57 2.32L9.51 7.48C9.37 7.84 9.03 8.08 8.65 8.11L3.11 8.47C2.21 8.53 1.84 9.66 2.54 10.24L6.8 13.78C7.1 14.03 7.23 14.42 7.13 14.8L5.77 20.18C5.54 21.05 6.5 21.75 7.27 21.27L11.96 18.31C12.29 18.1 12.7 18.1 13.03 18.31L17.72 21.27C18.49 21.75 19.45 21.05 19.22 20.18L17.86 14.8C17.76 14.42 17.89 14.03 18.19 13.78L22.45 10.24C23.15 9.66 22.78 8.53 21.88 8.47L16.34 8.11C15.96 8.08 15.62 7.84 15.48 7.48L13.42 2.32C13.09 1.48 11.9 1.48 11.57 2.32Z" fill="#F84F6C" fill-opacity="1.000000" fill-rule="evenodd"/>
	<path id="Star 7" d="M44.57 2.32L42.51 7.48C42.37 7.84 42.03 8.08 41.65 8.11L36.11 8.47C35.21 8.53 34.84 9.66 35.54 10.24L39.8 13.78C40.1 14.03 40.23 14.42 40.13 14.8L38.77 20.18C38.54 21.05 39.5 21.75 40.27 21.27L44.96 18.31C45.29 18.1 45.7 18.1 46.03 18.31L50.72 21.27C51.49 21.75 52.45 21.05 52.22 20.18L50.86 14.8C50.76 14.42 50.89 14.03 51.19 13.78L55.45 10.24C56.15 9.66 55.78 8.53 54.88 8.47L49.34 8.11C48.96 8.08 48.62 7.84 48.48 7.48L46.42 2.32C46.09 1.48 44.9 1.48 44.57 2.32Z" fill="#F84F6C" fill-opacity="1.000000" fill-rule="evenodd"/>
	<path id="Star 8" d="M77.57 2.32L75.51 7.48C75.37 7.84 75.03 8.08 74.65 8.11L69.11 8.47C68.21 8.53 67.84 9.66 68.54 10.24L72.8 13.78C73.1 14.03 73.23 14.42 73.13 14.8L71.77 20.18C71.54 21.05 72.5 21.75 73.27 21.27L77.96 18.31C78.29 18.1 78.7 18.1 79.03 18.31L83.72 21.27C84.49 21.75 85.45 21.05 85.22 20.18L83.86 14.8C83.76 14.42 83.89 14.03 84.19 13.78L88.45 10.24C89.15 9.66 88.78 8.53 87.88 8.47L82.34 8.11C81.96 8.08 81.62 7.84 81.48 7.48L79.42 2.32C79.09 1.48 77.9 1.48 77.57 2.32Z" fill="#F84F6C" fill-opacity="1.000000" fill-rule="evenodd"/>
	<path id="Star 9" d="M110.57 2.32L108.51 7.48C108.37 7.84 108.03 8.08 107.65 8.11L102.11 8.47C101.21 8.53 100.84 9.66 101.54 10.24L105.8 13.78C106.1 14.03 106.23 14.42 106.13 14.8L104.77 20.18C104.54 21.05 105.5 21.75 106.27 21.27L110.96 18.31C111.29 18.1 111.7 18.1 112.03 18.31L116.72 21.27C117.49 21.75 118.45 21.05 118.22 20.18L116.86 14.8C116.76 14.42 116.89 14.03 117.19 13.78L121.46 10.24C122.15 9.66 121.78 8.53 120.88 8.47L115.34 8.11C114.96 8.08 114.62 7.84 114.48 7.48L112.42 2.32C112.09 1.48 110.9 1.48 110.57 2.32Z" fill="#F84F6C" fill-opacity="1.000000" fill-rule="evenodd"/>
	<path id="Star 10" d="M143.57 2.32L141.51 7.48C141.37 7.84 141.03 8.08 140.65 8.11L135.11 8.47C134.21 8.53 133.84 9.66 134.53 10.24L138.8 13.78C139.1 14.03 139.23 14.42 139.13 14.8L137.77 20.18C137.54 21.05 138.5 21.75 139.27 21.27L143.96 18.31C144.29 18.1 144.7 18.1 145.03 18.31L149.72 21.27C150.49 21.75 151.45 21.05 151.22 20.18L149.86 14.8C149.76 14.42 149.89 14.03 150.19 13.78L154.46 10.24C155.15 9.66 154.78 8.53 153.88 8.47L148.34 8.11C147.96 8.08 147.62 7.84 147.48 7.48L145.42 2.32C145.09 1.48 143.9 1.48 143.57 2.32Z" fill="#F84F6C" fill-opacity="1.000000" fill-rule="evenodd"/>
</svg>
